<?xml version="1.0" encoding="UTF-8" standalone="no"?><!DOCTYPE svg PUBLIC "-//W3C//DTD SVG 1.1//EN" "http://www.w3.org/Graphics/SVG/1.1/DTD/svg11.dtd"><!-- Generated by graphviz version 2.40.1 (20161225.0304)
 --><!-- Title: nd Pages: 1 --><svg xmlns="http://www.w3.org/2000/svg" xmlns:xlink="http://www.w3.org/1999/xlink" width="701pt" height="188pt" viewBox="0.00 0.00 700.70 188.00">
<g id="graph0" class="graph" transform="scale(1 1) rotate(0) translate(4 184)">
<title>nd</title>
<polygon fill="#ffffff" stroke="transparent" points="-4,4 -4,-184 696.7008,-184 696.7008,4 -4,4"/>
<!-- node -->
<g id="node1" class="node">
<title>node</title>
<ellipse fill="none" stroke="#000000" cx="346.3504" cy="-162" rx="29.6185" ry="18"/>
<text text-anchor="middle" x="346.3504" y="-157.8" font-family="Times,serif" font-size="14.00" fill="#000000">node</text>
</g>
<!-- 0 -->
<g id="node2" class="node">
<title>0</title>
<ellipse fill="none" stroke="#000000" cx="37.3504" cy="-90" rx="27" ry="18"/>
<text text-anchor="middle" x="37.3504" y="-85.8" font-family="Times,serif" font-size="14.00" fill="#000000">0</text>
</g>
<!-- node&#45;&gt;0 -->
<g id="edge1" class="edge">
<title>node-&gt;0</title>
<path fill="none" stroke="#000000" d="M317.0069,-158.4331C266.7977,-151.8242 161.5742,-135.7608 76.3504,-108 73.625,-107.1122 70.8388,-106.0852 68.0715,-104.9809"/>
<polygon fill="#000000" stroke="#000000" points="69.4209,-101.7513 58.8515,-101.0179 66.6566,-108.1824 69.4209,-101.7513"/>
</g>
<!-- 1 -->
<g id="node3" class="node">
<title>1</title>
<ellipse fill="none" stroke="#000000" cx="112.3504" cy="-90" rx="27" ry="18"/>
<text text-anchor="middle" x="112.3504" y="-85.8" font-family="Times,serif" font-size="14.00" fill="#000000">1</text>
</g>
<!-- node&#45;&gt;1 -->
<g id="edge2" class="edge">
<title>node-&gt;1</title>
<path fill="none" stroke="#000000" d="M318.5062,-155.2542C281.0229,-145.9185 212.4453,-127.9391 155.3504,-108 151.7785,-106.7526 148.0772,-105.3605 144.4128,-103.9182"/>
<polygon fill="#000000" stroke="#000000" points="145.4951,-100.5798 134.9136,-100.0477 142.8538,-107.0624 145.4951,-100.5798"/>
</g>
<!-- 2 -->
<g id="node4" class="node">
<title>2</title>
<ellipse fill="none" stroke="#000000" cx="191.3504" cy="-90" rx="27" ry="18"/>
<text text-anchor="middle" x="191.3504" y="-85.8" font-family="Times,serif" font-size="14.00" fill="#000000">2</text>
</g>
<!-- node&#45;&gt;2 -->
<g id="edge3" class="edge">
<title>node-&gt;2</title>
<path fill="none" stroke="#000000" d="M322.4713,-150.9078C295.9207,-138.5746 252.9015,-118.5915 223.4278,-104.9005"/>
<polygon fill="#000000" stroke="#000000" points="224.5388,-101.5574 213.995,-100.5188 221.5898,-107.9059 224.5388,-101.5574"/>
</g>
<!-- 3 -->
<g id="node5" class="node">
<title>3</title>
<ellipse fill="none" stroke="#000000" cx="270.3504" cy="-90" rx="27" ry="18"/>
<text text-anchor="middle" x="270.3504" y="-85.8" font-family="Times,serif" font-size="14.00" fill="#000000">3</text>
</g>
<!-- node&#45;&gt;3 -->
<g id="edge4" class="edge">
<title>node-&gt;3</title>
<path fill="none" stroke="#000000" d="M330.2328,-146.7307C319.5098,-136.5721 305.2605,-123.0727 293.352,-111.791"/>
<polygon fill="#000000" stroke="#000000" points="295.5917,-109.0915 285.925,-104.7549 290.7774,-114.1732 295.5917,-109.0915"/>
</g>
<!-- 4 -->
<g id="node6" class="node">
<title>4</title>
<ellipse fill="none" stroke="#000000" cx="346.3504" cy="-90" rx="27" ry="18"/>
<text text-anchor="middle" x="346.3504" y="-85.8" font-family="Times,serif" font-size="14.00" fill="#000000">4</text>
</g>
<!-- node&#45;&gt;4 -->
<g id="edge5" class="edge">
<title>node-&gt;4</title>
<path fill="none" stroke="#000000" d="M346.3504,-143.8314C346.3504,-136.131 346.3504,-126.9743 346.3504,-118.4166"/>
<polygon fill="#000000" stroke="#000000" points="349.8505,-118.4132 346.3504,-108.4133 342.8505,-118.4133 349.8505,-118.4132"/>
</g>
<!-- 5 -->
<g id="node7" class="node">
<title>5</title>
<ellipse fill="none" stroke="#000000" cx="421.3504" cy="-90" rx="27" ry="18"/>
<text text-anchor="middle" x="421.3504" y="-85.8" font-family="Times,serif" font-size="14.00" fill="#000000">5</text>
</g>
<!-- node&#45;&gt;5 -->
<g id="edge6" class="edge">
<title>node-&gt;5</title>
<path fill="none" stroke="#000000" d="M362.256,-146.7307C372.7672,-136.6398 386.7123,-123.2526 398.4161,-112.0169"/>
<polygon fill="#000000" stroke="#000000" points="400.9349,-114.4507 405.7249,-105.0004 396.0872,-109.4009 400.9349,-114.4507"/>
</g>
<!-- 6 -->
<g id="node8" class="node">
<title>6</title>
<ellipse fill="none" stroke="#000000" cx="498.3504" cy="-90" rx="27" ry="18"/>
<text text-anchor="middle" x="498.3504" y="-85.8" font-family="Times,serif" font-size="14.00" fill="#000000">6</text>
</g>
<!-- node&#45;&gt;6 -->
<g id="edge7" class="edge">
<title>node-&gt;6</title>
<path fill="none" stroke="#000000" d="M370.1004,-150.75C396.206,-138.3842 438.2531,-118.4671 467.0373,-104.8325"/>
<polygon fill="#000000" stroke="#000000" points="468.7092,-107.9134 476.2483,-100.4694 465.7126,-101.5873 468.7092,-107.9134"/>
</g>
<!-- 7 -->
<g id="node9" class="node">
<title>7</title>
<ellipse fill="none" stroke="#000000" cx="576.3504" cy="-90" rx="27" ry="18"/>
<text text-anchor="middle" x="576.3504" y="-85.8" font-family="Times,serif" font-size="14.00" fill="#000000">7</text>
</g>
<!-- node&#45;&gt;7 -->
<g id="edge8" class="edge">
<title>node-&gt;7</title>
<path fill="none" stroke="#000000" d="M374.0908,-155.1936C411.0731,-145.8569 478.3705,-127.947 534.3504,-108 537.6641,-106.8192 541.0901,-105.5074 544.4899,-104.1455"/>
<polygon fill="#000000" stroke="#000000" points="545.9955,-107.31 553.8875,-100.2412 543.3099,-100.8457 545.9955,-107.31"/>
</g>
<!-- 8 -->
<g id="node10" class="node">
<title>8</title>
<ellipse fill="none" stroke="#000000" cx="655.3504" cy="-90" rx="27" ry="18"/>
<text text-anchor="middle" x="655.3504" y="-85.8" font-family="Times,serif" font-size="14.00" fill="#000000">8</text>
</g>
<!-- node&#45;&gt;8 -->
<g id="edge9" class="edge">
<title>node-&gt;8</title>
<path fill="none" stroke="#000000" d="M375.5496,-157.9913C425.0138,-150.777 528.1244,-133.9032 612.3504,-108 615.9667,-106.8878 619.6962,-105.5816 623.377,-104.1892"/>
<polygon fill="#000000" stroke="#000000" points="624.9136,-107.3441 632.8951,-100.3766 622.3107,-100.846 624.9136,-107.3441"/>
</g>
<!-- 0000 -->
<g id="node11" class="node">
<title>0000</title>
<ellipse fill="none" stroke="#000000" cx="30.3504" cy="-18" rx="30.2015" ry="18"/>
<text text-anchor="middle" x="30.3504" y="-13.8" font-family="Times,serif" font-size="14.00" fill="#000000">0000</text>
</g>
<!-- 0&#45;&gt;0000 -->
<g id="edge10" class="edge">
<title>0-&gt;0000</title>
<path fill="none" stroke="#000000" d="M35.584,-71.8314C34.8354,-64.131 33.9451,-54.9743 33.1131,-46.4166"/>
<polygon fill="#000000" stroke="#000000" points="36.5919,-46.0276 32.1406,-36.4133 29.6248,-46.7051 36.5919,-46.0276"/>
</g>
<!-- 0001 -->
<g id="node12" class="node">
<title>0001</title>
<ellipse fill="none" stroke="#000000" cx="109.3504" cy="-18" rx="30.2015" ry="18"/>
<text text-anchor="middle" x="109.3504" y="-13.8" font-family="Times,serif" font-size="14.00" fill="#000000">0001</text>
</g>
<!-- 1&#45;&gt;0001 -->
<g id="edge11" class="edge">
<title>1-&gt;0001</title>
<path fill="none" stroke="#000000" d="M111.5934,-71.8314C111.2725,-64.131 110.891,-54.9743 110.5344,-46.4166"/>
<polygon fill="#000000" stroke="#000000" points="114.031,-46.2589 110.1176,-36.4133 107.0371,-46.5503 114.031,-46.2589"/>
</g>
<!-- 0010 -->
<g id="node13" class="node">
<title>0010</title>
<ellipse fill="none" stroke="#000000" cx="188.3504" cy="-18" rx="30.2015" ry="18"/>
<text text-anchor="middle" x="188.3504" y="-13.8" font-family="Times,serif" font-size="14.00" fill="#000000">0010</text>
</g>
<!-- 2&#45;&gt;0010 -->
<g id="edge12" class="edge">
<title>2-&gt;0010</title>
<path fill="none" stroke="#000000" d="M190.5934,-71.8314C190.2725,-64.131 189.891,-54.9743 189.5344,-46.4166"/>
<polygon fill="#000000" stroke="#000000" points="193.031,-46.2589 189.1176,-36.4133 186.0371,-46.5503 193.031,-46.2589"/>
</g>
<!-- 0011 -->
<g id="node14" class="node">
<title>0011</title>
<ellipse fill="none" stroke="#000000" cx="267.3504" cy="-18" rx="30.2015" ry="18"/>
<text text-anchor="middle" x="267.3504" y="-13.8" font-family="Times,serif" font-size="14.00" fill="#000000">0011</text>
</g>
<!-- 3&#45;&gt;0011 -->
<g id="edge13" class="edge">
<title>3-&gt;0011</title>
<path fill="none" stroke="#000000" d="M269.5934,-71.8314C269.2725,-64.131 268.891,-54.9743 268.5344,-46.4166"/>
<polygon fill="#000000" stroke="#000000" points="272.031,-46.2589 268.1176,-36.4133 265.0371,-46.5503 272.031,-46.2589"/>
</g>
<!-- 0100 -->
<g id="node15" class="node">
<title>0100</title>
<ellipse fill="none" stroke="#000000" cx="346.3504" cy="-18" rx="30.2015" ry="18"/>
<text text-anchor="middle" x="346.3504" y="-13.8" font-family="Times,serif" font-size="14.00" fill="#000000">0100</text>
</g>
<!-- 4&#45;&gt;0100 -->
<g id="edge14" class="edge">
<title>4-&gt;0100</title>
<path fill="none" stroke="#000000" d="M346.3504,-71.8314C346.3504,-64.131 346.3504,-54.9743 346.3504,-46.4166"/>
<polygon fill="#000000" stroke="#000000" points="349.8505,-46.4132 346.3504,-36.4133 342.8505,-46.4133 349.8505,-46.4132"/>
</g>
<!-- 0101 -->
<g id="node16" class="node">
<title>0101</title>
<ellipse fill="none" stroke="#000000" cx="425.3504" cy="-18" rx="30.2015" ry="18"/>
<text text-anchor="middle" x="425.3504" y="-13.8" font-family="Times,serif" font-size="14.00" fill="#000000">0101</text>
</g>
<!-- 5&#45;&gt;0101 -->
<g id="edge15" class="edge">
<title>5-&gt;0101</title>
<path fill="none" stroke="#000000" d="M422.3598,-71.8314C422.7876,-64.131 423.2963,-54.9743 423.7717,-46.4166"/>
<polygon fill="#000000" stroke="#000000" points="427.2673,-46.592 424.3274,-36.4133 420.278,-46.2037 427.2673,-46.592"/>
</g>
<!-- 0110 -->
<g id="node17" class="node">
<title>0110</title>
<ellipse fill="none" stroke="#000000" cx="504.3504" cy="-18" rx="30.2015" ry="18"/>
<text text-anchor="middle" x="504.3504" y="-13.8" font-family="Times,serif" font-size="14.00" fill="#000000">0110</text>
</g>
<!-- 6&#45;&gt;0110 -->
<g id="edge16" class="edge">
<title>6-&gt;0110</title>
<path fill="none" stroke="#000000" d="M499.8645,-71.8314C500.5062,-64.131 501.2692,-54.9743 501.9823,-46.4166"/>
<polygon fill="#000000" stroke="#000000" points="505.4733,-46.6694 502.816,-36.4133 498.4975,-46.088 505.4733,-46.6694"/>
</g>
<!-- 0111 -->
<g id="node18" class="node">
<title>0111</title>
<ellipse fill="none" stroke="#000000" cx="583.3504" cy="-18" rx="30.2015" ry="18"/>
<text text-anchor="middle" x="583.3504" y="-13.8" font-family="Times,serif" font-size="14.00" fill="#000000">0111</text>
</g>
<!-- 7&#45;&gt;0111 -->
<g id="edge17" class="edge">
<title>7-&gt;0111</title>
<path fill="none" stroke="#000000" d="M578.1168,-71.8314C578.8654,-64.131 579.7557,-54.9743 580.5877,-46.4166"/>
<polygon fill="#000000" stroke="#000000" points="584.076,-46.7051 581.5602,-36.4133 577.1089,-46.0276 584.076,-46.7051"/>
</g>
<!-- 1000 -->
<g id="node19" class="node">
<title>1000</title>
<ellipse fill="none" stroke="#000000" cx="662.3504" cy="-18" rx="30.2015" ry="18"/>
<text text-anchor="middle" x="662.3504" y="-13.8" font-family="Times,serif" font-size="14.00" fill="#000000">1000</text>
</g>
<!-- 8&#45;&gt;1000 -->
<g id="edge18" class="edge">
<title>8-&gt;1000</title>
<path fill="none" stroke="#000000" d="M657.1168,-71.8314C657.8654,-64.131 658.7557,-54.9743 659.5877,-46.4166"/>
<polygon fill="#000000" stroke="#000000" points="663.076,-46.7051 660.5602,-36.4133 656.1089,-46.0276 663.076,-46.7051"/>
</g>
</g>
</svg>