<?xml version="1.0" encoding="UTF-8" standalone="no"?><!DOCTYPE svg PUBLIC "-//W3C//DTD SVG 1.1//EN" "http://www.w3.org/Graphics/SVG/1.1/DTD/svg11.dtd"><!-- Generated by graphviz version 2.40.1 (20161225.0304)
 --><!-- Title: path Pages: 1 --><svg xmlns="http://www.w3.org/2000/svg" xmlns:xlink="http://www.w3.org/1999/xlink" width="227pt" height="482pt" viewBox="0.00 0.00 226.95 481.80">
<g id="graph0" class="graph" transform="scale(1 1) rotate(0) translate(4 477.8)">
<title>path</title>
<polygon fill="#ffffff" stroke="transparent" points="-4,4 -4,-477.8 222.9506,-477.8 222.9506,4 -4,4"/>
<g id="clust1" class="cluster">
<title>cluster_1</title>
<polygon fill="#f5fffa" stroke="#000000" points="64,-280 64,-428.8 150,-428.8 150,-280 64,-280"/>
<text text-anchor="middle" x="107" y="-412.2" font-family="Times,serif" font-size="14.00" fill="#000000">路径压缩</text>
</g>
<!-- node1 -->
<g id="node1" class="node">
<title>node1</title>
<polygon fill="none" stroke="#000000" points="66,-437.3 66,-473.3 120,-473.3 120,-437.3 66,-437.3"/>
<text text-anchor="middle" x="79.5" y="-451.1" font-family="Times,serif" font-size="14.00" fill="#000000">1</text>
<polyline fill="none" stroke="#000000" points="93,-437.3 93,-473.3 "/>
<text text-anchor="middle" x="106.5" y="-451.1" font-family="Times,serif" font-size="14.00" fill="#000000">2</text>
</g>
<!-- node2 -->
<g id="node2" class="node">
<title>node2</title>
<ellipse fill="none" stroke="#000000" cx="27" cy="-378" rx="27" ry="18"/>
<text text-anchor="middle" x="27" y="-373.8" font-family="Times,serif" font-size="14.00" fill="#000000">3</text>
</g>
<!-- node1&#45;&gt;node2 -->
<g id="edge1" class="edge">
<title>node1:f0-&gt;node2</title>
<path fill="none" stroke="#000000" d="M79,-437.3C79,-428.049 67.0295,-434.8138 60,-428.8 52.0522,-422.0006 45.2992,-412.8173 40.0121,-404.1285"/>
<polygon fill="#000000" stroke="#000000" points="43.0237,-402.3437 35.0445,-395.3735 36.9354,-405.7982 43.0237,-402.3437"/>
</g>
<!-- node3 -->
<g id="node3" class="node">
<title>node3</title>
<ellipse fill="none" stroke="#000000" cx="187" cy="-378" rx="27" ry="18"/>
<text text-anchor="middle" x="187" y="-373.8" font-family="Times,serif" font-size="14.00" fill="#000000">7</text>
</g>
<!-- node1&#45;&gt;node3 -->
<g id="edge3" class="edge">
<title>node1:f1-&gt;node3</title>
<path fill="none" stroke="#000000" d="M107,-437.3C107,-426.6861 145.1617,-434.677 154,-428.8 162.8397,-422.9221 169.8389,-413.7819 175.0747,-404.8657"/>
<polygon fill="#000000" stroke="#000000" points="178.29,-406.2738 179.8959,-395.8014 172.1098,-402.9866 178.29,-406.2738"/>
</g>
<!-- node9 -->
<g id="node10" class="node">
<title>node9</title>
<ellipse fill="none" stroke="#000000" cx="107" cy="-378" rx="35.3587" ry="18"/>
<text text-anchor="middle" x="107" y="-373.8" font-family="Times,serif" font-size="14.00" fill="#000000">72302</text>
</g>
<!-- node1&#45;&gt;node9 -->
<g id="edge4" class="edge">
<title>node1:f1-&gt;node9</title>
<path fill="none" stroke="#000000" stroke-dasharray="5,2" d="M107,-437.3C107,-427.1689 107,-416.0643 107,-406.2315"/>
<polygon fill="#000000" stroke="#000000" points="110.5001,-406.1674 107,-396.1674 103.5001,-406.1674 110.5001,-406.1674"/>
</g>
<!-- ... -->
<g id="node9" class="node">
<title>...</title>
<ellipse fill="none" stroke="#000000" cx="27" cy="-306" rx="27" ry="18"/>
<text text-anchor="middle" x="27" y="-301.8" font-family="Times,serif" font-size="14.00" fill="#000000">...</text>
</g>
<!-- node2&#45;&gt;... -->
<g id="edge2" class="edge">
<title>node2-&gt;...</title>
<path fill="none" stroke="#000000" d="M27,-359.8314C27,-352.131 27,-342.9743 27,-334.4166"/>
<polygon fill="#000000" stroke="#000000" points="30.5001,-334.4132 27,-324.4133 23.5001,-334.4133 30.5001,-334.4132"/>
</g>
<!-- node4 -->
<g id="node4" class="node">
<title>node4</title>
<ellipse fill="none" stroke="#000000" cx="187" cy="-306" rx="27" ry="18"/>
<text text-anchor="middle" x="187" y="-301.8" font-family="Times,serif" font-size="14.00" fill="#000000">2</text>
</g>
<!-- node3&#45;&gt;node4 -->
<g id="edge5" class="edge">
<title>node3-&gt;node4</title>
<path fill="none" stroke="#000000" d="M187,-359.8314C187,-352.131 187,-342.9743 187,-334.4166"/>
<polygon fill="#000000" stroke="#000000" points="190.5001,-334.4132 187,-324.4133 183.5001,-334.4133 190.5001,-334.4132"/>
</g>
<!-- node5 -->
<g id="node5" class="node">
<title>node5</title>
<ellipse fill="none" stroke="#000000" cx="187" cy="-234" rx="27" ry="18"/>
<text text-anchor="middle" x="187" y="-229.8" font-family="Times,serif" font-size="14.00" fill="#000000">3</text>
</g>
<!-- node4&#45;&gt;node5 -->
<g id="edge6" class="edge">
<title>node4-&gt;node5</title>
<path fill="none" stroke="#000000" d="M187,-287.8314C187,-280.131 187,-270.9743 187,-262.4166"/>
<polygon fill="#000000" stroke="#000000" points="190.5001,-262.4132 187,-252.4133 183.5001,-262.4133 190.5001,-262.4132"/>
</g>
<!-- node6 -->
<g id="node6" class="node">
<title>node6</title>
<ellipse fill="none" stroke="#000000" cx="187" cy="-162" rx="27" ry="18"/>
<text text-anchor="middle" x="187" y="-157.8" font-family="Times,serif" font-size="14.00" fill="#000000">0</text>
</g>
<!-- node5&#45;&gt;node6 -->
<g id="edge7" class="edge">
<title>node5-&gt;node6</title>
<path fill="none" stroke="#000000" d="M187,-215.8314C187,-208.131 187,-198.9743 187,-190.4166"/>
<polygon fill="#000000" stroke="#000000" points="190.5001,-190.4132 187,-180.4133 183.5001,-190.4133 190.5001,-190.4132"/>
</g>
<!-- node7 -->
<g id="node7" class="node">
<title>node7</title>
<ellipse fill="none" stroke="#000000" cx="187" cy="-90" rx="27" ry="18"/>
<text text-anchor="middle" x="187" y="-85.8" font-family="Times,serif" font-size="14.00" fill="#000000">2</text>
</g>
<!-- node6&#45;&gt;node7 -->
<g id="edge8" class="edge">
<title>node6-&gt;node7</title>
<path fill="none" stroke="#000000" d="M187,-143.8314C187,-136.131 187,-126.9743 187,-118.4166"/>
<polygon fill="#000000" stroke="#000000" points="190.5001,-118.4132 187,-108.4133 183.5001,-118.4133 190.5001,-118.4132"/>
</g>
<!-- node8 -->
<g id="node8" class="node">
<title>node8</title>
<ellipse fill="none" stroke="#000000" cx="187" cy="-18" rx="31.9012" ry="18"/>
<text text-anchor="middle" x="187" y="-13.8" font-family="Times,serif" font-size="14.00" fill="#000000">value</text>
</g>
<!-- node7&#45;&gt;node8 -->
<g id="edge9" class="edge">
<title>node7-&gt;node8</title>
<path fill="none" stroke="#000000" d="M187,-71.8314C187,-64.131 187,-54.9743 187,-46.4166"/>
<polygon fill="#000000" stroke="#000000" points="190.5001,-46.4132 187,-36.4133 183.5001,-46.4133 190.5001,-46.4132"/>
</g>
<!-- node10 -->
<g id="node11" class="node">
<title>node10</title>
<ellipse fill="none" stroke="#000000" cx="107" cy="-306" rx="31.9012" ry="18"/>
<text text-anchor="middle" x="107" y="-301.8" font-family="Times,serif" font-size="14.00" fill="#000000">value</text>
</g>
<!-- node9&#45;&gt;node10 -->
<g id="edge10" class="edge">
<title>node9-&gt;node10</title>
<path fill="none" stroke="#000000" d="M107,-359.8314C107,-352.131 107,-342.9743 107,-334.4166"/>
<polygon fill="#000000" stroke="#000000" points="110.5001,-334.4132 107,-324.4133 103.5001,-334.4133 110.5001,-334.4132"/>
</g>
</g>
</svg>