<?xml version="1.0" encoding="UTF-8" standalone="no"?><!DOCTYPE svg PUBLIC "-//W3C//DTD SVG 1.1//EN" "http://www.w3.org/Graphics/SVG/1.1/DTD/svg11.dtd"><!-- Generated by graphviz version 2.40.1 (20161225.0304)
 --><!-- Title: windowpost Pages: 1 --><svg xmlns="http://www.w3.org/2000/svg" xmlns:xlink="http://www.w3.org/1999/xlink" width="1061pt" height="430pt" viewBox="0.00 0.00 1061.43 430.00">
<g id="graph0" class="graph" transform="scale(1 1) rotate(0) translate(4 426)">
<title>windowpost</title>
<polygon fill="#ffffff" stroke="transparent" points="-4,4 -4,-426 1057.429,-426 1057.429,4 -4,4"/>
<!-- Dealines -->
<g id="node1" class="node">
<title>Dealines</title>
<ellipse fill="none" stroke="#000000" stroke-width=".5" cx="756.7786" cy="-404" rx="37.0631" ry="18"/>
<text text-anchor="middle" x="756.7786" y="-400.4" font-family="Inconsolata, Consolas" font-size="12.00" fill="#000000">Dealines</text>
</g>
<!-- Deadline[0] -->
<g id="node2" class="node">
<title>Deadline[0]</title>
<ellipse fill="none" stroke="#000000" stroke-width=".5" cx="474.7786" cy="-313" rx="46.6371" ry="18"/>
<text text-anchor="middle" x="474.7786" y="-309.4" font-family="Inconsolata, Consolas" font-size="12.00" fill="#000000">Deadline[0]</text>
</g>
<!-- Dealines&#45;&gt;Deadline[0] -->
<g id="edge1" class="edge">
<title>Dealines-&gt;Deadline[0]</title>
<path fill="none" stroke="#000000" d="M725.793,-394.0011C676.0197,-377.9395 578.0036,-346.3102 520.2786,-327.6826"/>
<polygon fill="#000000" stroke="#000000" points="521.2736,-324.3261 510.6819,-324.5858 519.1238,-330.9878 521.2736,-324.3261"/>
</g>
<!-- Deadline[1] -->
<g id="node3" class="node">
<title>Deadline[1]</title>
<ellipse fill="none" stroke="#000000" stroke-width=".5" cx="615.7786" cy="-313" rx="46.6371" ry="18"/>
<text text-anchor="middle" x="615.7786" y="-309.4" font-family="Inconsolata, Consolas" font-size="12.00" fill="#000000">Deadline[1]</text>
</g>
<!-- Dealines&#45;&gt;Deadline[1] -->
<g id="edge2" class="edge">
<title>Dealines-&gt;Deadline[1]</title>
<path fill="none" stroke="#000000" d="M734.4367,-389.5808C711.2744,-374.632 674.8273,-351.1095 648.4357,-334.0766"/>
<polygon fill="#000000" stroke="#000000" points="650.2047,-331.0527 639.9047,-328.5707 646.4088,-336.9341 650.2047,-331.0527"/>
</g>
<!-- Deadline[2] -->
<g id="node4" class="node">
<title>Deadline[2]</title>
<ellipse fill="none" stroke="#000000" stroke-width=".5" cx="756.7786" cy="-313" rx="46.6371" ry="18"/>
<text text-anchor="middle" x="756.7786" y="-309.4" font-family="Inconsolata, Consolas" font-size="12.00" fill="#000000">Deadline[2]</text>
</g>
<!-- Dealines&#45;&gt;Deadline[2] -->
<g id="edge3" class="edge">
<title>Dealines-&gt;Deadline[2]</title>
<path fill="none" stroke="#000000" d="M756.7786,-385.5848C756.7786,-372.9209 756.7786,-355.8558 756.7786,-341.4541"/>
<polygon fill="#000000" stroke="#000000" points="760.2787,-341.0772 756.7786,-331.0773 753.2787,-341.0773 760.2787,-341.0772"/>
</g>
<!-- .... -->
<g id="node5" class="node">
<title>....</title>
<ellipse fill="none" stroke="#000000" stroke-width=".5" cx="877.7786" cy="-313" rx="27" ry="18"/>
<text text-anchor="middle" x="877.7786" y="-309.4" font-family="Inconsolata, Consolas" font-size="12.00" fill="#000000">....</text>
</g>
<!-- Dealines&#45;&gt;.... -->
<g id="edge4" class="edge">
<title>Dealines-&gt;....</title>
<path fill="none" stroke="#000000" d="M777.0313,-388.7686C797.5528,-373.3351 829.3811,-349.3981 851.76,-332.5677"/>
<polygon fill="#000000" stroke="#000000" points="853.9426,-335.3056 859.831,-326.4978 849.7352,-329.7111 853.9426,-335.3056"/>
</g>
<!-- Deadline[47] -->
<g id="node6" class="node">
<title>Deadline[47]</title>
<ellipse fill="none" stroke="#000000" stroke-width=".5" cx="1002.7786" cy="-313" rx="50.8013" ry="18"/>
<text text-anchor="middle" x="1002.7786" y="-309.4" font-family="Inconsolata, Consolas" font-size="12.00" fill="#000000">Deadline[47]</text>
</g>
<!-- Dealines&#45;&gt;Deadline[47] -->
<g id="edge5" class="edge">
<title>Dealines-&gt;Deadline[47]</title>
<path fill="none" stroke="#000000" d="M786.4519,-393.0233C829.1018,-377.2463 908.0692,-348.0348 957.8839,-329.6074"/>
<polygon fill="#000000" stroke="#000000" points="959.2741,-332.825 967.4387,-326.0729 956.8455,-326.2598 959.2741,-332.825"/>
</g>
<!-- Partions -->
<g id="node7" class="node">
<title>Partions</title>
<ellipse fill="none" stroke="#000000" stroke-width=".5" cx="345.7786" cy="-211" rx="35.1777" ry="18"/>
<text text-anchor="middle" x="345.7786" y="-207.4" font-family="Inconsolata, Consolas" font-size="12.00" fill="#000000">Partions</text>
</g>
<!-- Deadline[0]&#45;&gt;Partions -->
<g id="edge6" class="edge">
<title>Deadline[0]-&gt;Partions</title>
<path fill="none" stroke="#000000" d="M454.0525,-296.6119C432.1364,-279.2829 397.4536,-251.8593 373.2666,-232.7347"/>
<polygon fill="#000000" stroke="#000000" points="375.2022,-229.8033 365.1872,-226.3463 370.8605,-235.2942 375.2022,-229.8033"/>
</g>
<!-- LiveSectors -->
<g id="node8" class="node">
<title>LiveSectors</title>
<ellipse fill="none" stroke="#000000" stroke-width=".5" cx="474.7786" cy="-211" rx="46.6509" ry="18"/>
<text text-anchor="middle" x="474.7786" y="-207.4" font-family="Inconsolata, Consolas" font-size="12.00" fill="#000000">LiveSectors</text>
</g>
<!-- Deadline[0]&#45;&gt;LiveSectors -->
<g id="edge7" class="edge">
<title>Deadline[0]-&gt;LiveSectors</title>
<path fill="none" stroke="#000000" d="M474.7786,-294.7644C474.7786,-279.317 474.7786,-256.9149 474.7786,-239.164"/>
<polygon fill="#000000" stroke="#000000" points="478.2787,-239.0776 474.7786,-229.0777 471.2787,-239.0777 478.2787,-239.0776"/>
<text text-anchor="middle" x="511.6616" y="-259" font-family="Inconsolata, Consolas" font-size="10.00" fill="#000000">所有活跃扇区数量</text>
</g>
<!-- TotalSectors -->
<g id="node9" class="node">
<title>TotalSectors</title>
<ellipse fill="none" stroke="#000000" stroke-width=".5" cx="617.7786" cy="-211" rx="48.9101" ry="18"/>
<text text-anchor="middle" x="617.7786" y="-207.4" font-family="Inconsolata, Consolas" font-size="12.00" fill="#000000">TotalSectors</text>
</g>
<!-- Deadline[0]&#45;&gt;TotalSectors -->
<g id="edge8" class="edge">
<title>Deadline[0]-&gt;TotalSectors</title>
<path fill="none" stroke="#000000" d="M505.5413,-299.3927C522.2755,-291.3446 542.9358,-280.3268 559.7786,-268 572.6133,-258.6066 585.3839,-246.4422 595.6613,-235.7647"/>
<polygon fill="#000000" stroke="#000000" points="598.3677,-237.9958 602.6694,-228.3135 593.2687,-233.1999 598.3677,-237.9958"/>
<text text-anchor="middle" x="600.8576" y="-259" font-family="Inconsolata, Consolas" font-size="10.00" fill="#000000">总的扇区数量</text>
</g>
<!-- Partion[0] -->
<g id="node10" class="node">
<title>Partion[0]</title>
<ellipse fill="none" stroke="#000000" stroke-width=".5" cx="215.7786" cy="-120" rx="41.0869" ry="18"/>
<text text-anchor="middle" x="215.7786" y="-116.4" font-family="Inconsolata, Consolas" font-size="12.00" fill="#000000">Partion[0]</text>
</g>
<!-- Partions&#45;&gt;Partion[0] -->
<g id="edge9" class="edge">
<title>Partions-&gt;Partion[0]</title>
<path fill="none" stroke="#000000" d="M324.8918,-196.3793C303.6693,-181.5235 270.5676,-158.3523 246.3858,-141.425"/>
<polygon fill="#000000" stroke="#000000" points="248.1182,-138.3655 237.9188,-135.4981 244.104,-144.1001 248.1182,-138.3655"/>
</g>
<!-- Partion[1] -->
<g id="node11" class="node">
<title>Partion[1]</title>
<ellipse fill="none" stroke="#000000" stroke-width=".5" cx="345.7786" cy="-120" rx="41.0869" ry="18"/>
<text text-anchor="middle" x="345.7786" y="-116.4" font-family="Inconsolata, Consolas" font-size="12.00" fill="#000000">Partion[1]</text>
</g>
<!-- Partions&#45;&gt;Partion[1] -->
<g id="edge10" class="edge">
<title>Partions-&gt;Partion[1]</title>
<path fill="none" stroke="#000000" d="M345.7786,-192.5848C345.7786,-179.9209 345.7786,-162.8558 345.7786,-148.4541"/>
<polygon fill="#000000" stroke="#000000" points="349.2787,-148.0772 345.7786,-138.0773 342.2787,-148.0773 349.2787,-148.0772"/>
</g>
<!-- ... -->
<g id="node12" class="node">
<title>...</title>
<ellipse fill="none" stroke="#000000" stroke-width=".5" cx="460.7786" cy="-120" rx="27" ry="18"/>
<text text-anchor="middle" x="460.7786" y="-116.4" font-family="Inconsolata, Consolas" font-size="12.00" fill="#000000">...</text>
</g>
<!-- Partions&#45;&gt;... -->
<g id="edge11" class="edge">
<title>Partions-&gt;...</title>
<path fill="none" stroke="#000000" d="M365.027,-195.7686C384.3321,-180.4924 414.1654,-156.8852 435.397,-140.0846"/>
<polygon fill="#000000" stroke="#000000" points="437.6826,-142.7392 443.3526,-133.7893 433.3389,-137.2499 437.6826,-142.7392"/>
</g>
<!-- Sectors -->
<g id="node13" class="node">
<title>Sectors</title>
<ellipse fill="none" stroke="#000000" stroke-width=".5" cx="32.7786" cy="-18" rx="32.5586" ry="18"/>
<text text-anchor="middle" x="32.7786" y="-14.4" font-family="Inconsolata, Consolas" font-size="12.00" fill="#000000">Sectors</text>
</g>
<!-- Partion[0]&#45;&gt;Sectors -->
<g id="edge12" class="edge">
<title>Partion[0]-&gt;Sectors</title>
<path fill="none" stroke="#000000" d="M187.2209,-106.9622C168.8689,-98.3546 144.6545,-86.5674 123.8396,-75 102.8766,-63.3503 79.9984,-49.0229 62.4178,-37.6468"/>
<polygon fill="#000000" stroke="#000000" points="64.0347,-34.523 53.7454,-31.9968 60.2136,-40.3881 64.0347,-34.523"/>
<text text-anchor="middle" x="140.7481" y="-66" font-family="Inconsolata, Consolas" font-size="10.00" fill="#000000">所有扇区</text>
</g>
<!-- Unproven -->
<g id="node14" class="node">
<title>Unproven</title>
<ellipse fill="none" stroke="#000000" stroke-width=".5" cx="153.7786" cy="-18" rx="40.7341" ry="18"/>
<text text-anchor="middle" x="153.7786" y="-14.4" font-family="Inconsolata, Consolas" font-size="12.00" fill="#000000">Unproven</text>
</g>
<!-- Partion[0]&#45;&gt;Unproven -->
<g id="edge13" class="edge">
<title>Partion[0]-&gt;Unproven</title>
<path fill="none" stroke="#000000" d="M196.0703,-103.6903C187.5743,-95.7826 178.1391,-85.6898 171.7326,-75 166.4449,-66.1772 162.5601,-55.6393 159.7845,-46.0379"/>
<polygon fill="#000000" stroke="#000000" points="163.1061,-44.9046 157.1943,-36.1125 156.3329,-46.6722 163.1061,-44.9046"/>
<text text-anchor="middle" x="195.8016" y="-66" font-family="Inconsolata, Consolas" font-size="10.00" fill="#000000">未证明扇区</text>
</g>
<!-- Recover -->
<g id="node15" class="node">
<title>Recover</title>
<ellipse fill="none" stroke="#000000" stroke-width=".5" cx="277.7786" cy="-18" rx="35.5079" ry="18"/>
<text text-anchor="middle" x="277.7786" y="-14.4" font-family="Inconsolata, Consolas" font-size="12.00" fill="#000000">Recover</text>
</g>
<!-- Partion[0]&#45;&gt;Recover -->
<g id="edge14" class="edge">
<title>Partion[0]-&gt;Recover</title>
<path fill="none" stroke="#000000" d="M226.5781,-102.233C236.3278,-86.1933 250.799,-62.3858 261.8718,-44.1693"/>
<polygon fill="#000000" stroke="#000000" points="265.106,-45.5868 267.3093,-35.2236 259.1243,-41.9508 265.106,-45.5868"/>
<text text-anchor="middle" x="278.4966" y="-66" font-family="Inconsolata, Consolas" font-size="10.00" fill="#000000">需要恢复扇区</text>
</g>
<!-- Terminated -->
<g id="node16" class="node">
<title>Terminated</title>
<ellipse fill="none" stroke="#000000" stroke-width=".5" cx="405.7786" cy="-18" rx="45.5919" ry="18"/>
<text text-anchor="middle" x="405.7786" y="-14.4" font-family="Inconsolata, Consolas" font-size="12.00" fill="#000000">Terminated</text>
</g>
<!-- Partion[0]&#45;&gt;Terminated -->
<g id="edge15" class="edge">
<title>Partion[0]-&gt;Terminated</title>
<path fill="none" stroke="#000000" d="M247.0704,-107.9315C267.8265,-99.54 295.437,-87.6292 318.7786,-75 338.2087,-64.4872 358.9376,-51.0042 375.2861,-39.791"/>
<polygon fill="#000000" stroke="#000000" points="377.6601,-42.4039 383.8819,-33.8283 373.6703,-36.6522 377.6601,-42.4039"/>
<text text-anchor="middle" x="371.4911" y="-66" font-family="Inconsolata, Consolas" font-size="10.00" fill="#000000">已经中止的扇区</text>
</g>
</g>
</svg>